HIERARCHY
ROOT joint_Root
{
	OFFSET 0.0 0.0 0.0
	CHANNELS 6 Xposition Yposition Zposition Zrotation Xrotation Yrotation 
	JOINT Hips
	{
		OFFSET -0.726466 93.3139 -2.00062
		CHANNELS 6 Xposition Yposition Zposition Zrotation Xrotation Yrotation 
		JOINT Spine
		{
			OFFSET 15.7357 0.0 0.0
			CHANNELS 6 Xposition Yposition Zposition Zrotation Xrotation Yrotation 
			JOINT Chest
			{
				OFFSET 8.98455 -0.406207 0.0
				CHANNELS 6 Xposition Yposition Zposition Zrotation Xrotation Yrotation 
				JOINT Neck
				{
					OFFSET 16.3773 0.0 0.0
					CHANNELS 6 Xposition Yposition Zposition Zrotation Xrotation Yrotation 
					JOINT Head
					{
						OFFSET 6.45672 0.0 0.0
						CHANNELS 6 Xposition Yposition Zposition Zrotation Xrotation Yrotation 
						End Site
						{
							OFFSET 0.0 0.0 0.0
						}
					}
				}
				JOINT Shoulder_L
				{
					OFFSET 12.9942 -0.242716 4.98039
					CHANNELS 6 Xposition Yposition Zposition Zrotation Xrotation Yrotation 
					JOINT UpperArm_L
					{
						OFFSET 5.34809 0.0 0.0
						CHANNELS 6 Xposition Yposition Zposition Zrotation Xrotation Yrotation 
						JOINT LowerArm_L
						{
							OFFSET 24.3286 1.87007e-05 0.0
							CHANNELS 6 Xposition Yposition Zposition Zrotation Xrotation Yrotation 
							JOINT Hand_L
							{
								OFFSET 22.2916 0.0 0.0
								CHANNELS 6 Xposition Yposition Zposition Zrotation Xrotation Yrotation 
								End Site
								{
									OFFSET 0.0 0.0 0.0
								}
							}
						}
					}
				}
				JOINT Shoulder_R
				{
					OFFSET 12.9945 -0.242716 -4.98039
					CHANNELS 6 Xposition Yposition Zposition Zrotation Xrotation Yrotation 
					JOINT UpperArm_R
					{
						OFFSET -5.34813 0.0 0.0
						CHANNELS 6 Xposition Yposition Zposition Zrotation Xrotation Yrotation 
						JOINT LowerArm_R
						{
							OFFSET -24.3289 0.000322201 0.0
							CHANNELS 6 Xposition Yposition Zposition Zrotation Xrotation Yrotation 
							JOINT Hand_R
							{
								OFFSET -22.2915 -0.000108084 0.0
								CHANNELS 6 Xposition Yposition Zposition Zrotation Xrotation Yrotation 
								End Site
								{
									OFFSET 0.0 0.0 0.0
								}
							}
						}
					}
				}
			}
		}
		JOINT UpperLeg_L
		{
			OFFSET -2.19248 -6.46944 0.0
			CHANNELS 6 Xposition Yposition Zposition Zrotation Xrotation Yrotation 
			JOINT LowerLeg_L
			{
				OFFSET 39.0811 0.0 -1.23785e-05
				CHANNELS 6 Xposition Yposition Zposition Zrotation Xrotation Yrotation 
				JOINT Foot_L
				{
					OFFSET 40.9854 0.0 -1.26872e-05
					CHANNELS 6 Xposition Yposition Zposition Zrotation Xrotation Yrotation 
					JOINT Toes_L
					{
						OFFSET 11.7543 0.0 0.0
						CHANNELS 6 Xposition Yposition Zposition Zrotation Xrotation Yrotation 
						End Site
						{
							OFFSET 0.0 0.0 0.0
						}
					}
				}
			}
		}
		JOINT UpperLeg_R
		{
			OFFSET -2.19251 6.46944 0.0
			CHANNELS 6 Xposition Yposition Zposition Zrotation Xrotation Yrotation 
			JOINT LowerLeg_R
			{
				OFFSET -39.0811 -0.00228153 -0.0401928
				CHANNELS 6 Xposition Yposition Zposition Zrotation Xrotation Yrotation 
				JOINT Foot_R
				{
					OFFSET -40.9854 0.0 0.0
					CHANNELS 6 Xposition Yposition Zposition Zrotation Xrotation Yrotation 
					JOINT Toes_R
					{
						OFFSET -11.7543 0.0 0.0
						CHANNELS 6 Xposition Yposition Zposition Zrotation Xrotation Yrotation 
						End Site
						{
							OFFSET 0.0 0.0 0.0
						}
					}
				}
			}
		}
	}
}
MOTION
Frames:	7
Frame Time:	0.0333333
0.000000 0.000000 0.000000 0.000000 0.000000 -0.000000 -1.096990 92.082500 -1.904250 87.501800 -0.324356 2.853630 15.735700 0.000005 -0.000001 87.829300 85.342800 -87.277200 8.984550 -0.406207 -0.000000 1.543760 -0.382587 1.108460 16.377300 -0.000001 -0.000001 3.634960 -2.047030 0.113962 6.456720 -0.000001 -0.000000 -0.293191 -0.485012 2.603640 12.994200 -0.242716 4.980390 -89.731900 -0.811083 -71.708400 5.348090 -0.000007 -0.000001 -66.312000 39.791900 -13.236900 24.328600 0.000019 0.000005 3.950370 7.419800 -28.135200 22.291600 -0.000001 0.000005 7.066190 5.631590 -13.456200 12.994500 -0.242716 -4.980390 87.402500 6.833640 -69.129800 -5.348130 -0.000001 -0.000004 -65.090700 32.368600 -13.441300 -24.328900 0.000322 -0.000009 0.689152 1.616680 -23.123200 -22.291500 -0.000108 -0.000004 7.161810 5.546670 -8.549910 -2.192480 -6.469440 -0.000000 -167.992000 -15.811500 -3.250770 39.081100 -0.000007 -0.000012 -0.181449 0.478126 20.782000 40.985400 -0.000006 -0.000013 -6.586500 4.570270 -62.593600 11.754300 -0.000000 0.000003 -0.000128 -0.001269 -16.626000 -2.192510 6.469440 -0.000001 174.685000 21.179900 178.632000 -39.081100 -0.002282 -0.040193 -0.041286 0.128961 19.081000 -40.985400 0.000008 0.000006 -3.322630 3.358120 -62.729700 -11.754300 -0.000006 -0.000006 -0.004973 -0.061204 -19.063300
0.000000 0.000000 0.000000 0.000000 0.000000 -0.000000 -1.087210 92.076000 -1.910840 87.497800 -0.288372 2.856670 15.735700 0.000005 -0.000001 87.641700 85.334700 -87.127000 8.984550 -0.406207 -0.000000 1.558720 -0.411605 1.034200 16.377300 -0.000001 -0.000001 3.657910 -2.060170 0.133454 6.456720 -0.000001 -0.000000 -0.334382 -0.491583 2.651770 12.994200 -0.242716 4.980390 -89.713900 -0.864029 -71.677600 5.348090 -0.000007 -0.000001 -66.397800 39.630600 -13.128700 24.328600 0.000019 0.000005 3.867100 7.283140 -28.066700 22.291600 -0.000001 0.000005 7.158800 5.631490 -13.448600 12.994500 -0.242716 -4.980390 87.368800 6.883460 -69.021400 -5.348130 -0.000001 -0.000004 -64.702100 32.000700 -13.659800 -24.328900 0.000322 -0.000009 0.681437 1.578030 -23.392300 -22.291500 -0.000108 -0.000004 7.271690 5.547180 -8.573540 -2.192480 -6.469440 -0.000000 -168.002000 -15.747300 -3.309980 39.081100 -0.000007 -0.000012 -0.183200 0.480911 20.854300 40.985400 -0.000006 -0.000013 -6.581990 4.544040 -62.618200 11.754300 -0.000000 0.000003 -0.000138 -0.001355 -16.629200 -2.192510 6.469440 -0.000001 174.678000 21.205700 178.619000 -39.081100 -0.002282 -0.040193 -0.042366 0.131835 19.114500 -40.985400 0.000008 0.000006 -3.377680 3.347380 -62.737100 -11.754300 -0.000006 -0.000006 -0.004980 -0.061275 -19.066200
0.000000 0.000000 0.000000 0.000000 0.000000 -0.000000 -1.073660 92.082000 -1.902740 87.508000 -0.276964 2.939030 15.735700 0.000005 -0.000001 87.441100 85.297000 -86.961500 8.984550 -0.406207 -0.000000 1.632670 -0.445369 0.964652 16.377300 -0.000001 -0.000001 3.670210 -2.050370 0.162565 6.456720 -0.000001 -0.000000 -0.401305 -0.501438 2.688040 12.994200 -0.242716 4.980390 -89.699200 -0.905257 -71.618300 5.348090 -0.000007 -0.000001 -66.429900 39.654700 -13.065500 24.328600 0.000019 0.000005 3.785760 7.153800 -27.983500 22.291600 -0.000001 0.000005 7.338960 5.629610 -13.306900 12.994500 -0.242716 -4.980390 87.353400 6.886380 -68.917300 -5.348130 -0.000001 -0.000004 -64.100100 31.650300 -14.015700 -24.328900 0.000322 -0.000009 0.517767 1.178150 -23.769700 -22.291500 -0.000108 -0.000004 7.524170 5.550560 -8.732600 -2.192480 -6.469440 -0.000000 -168.002000 -15.712200 -3.190400 39.081100 -0.000007 -0.000012 -0.182330 0.479866 20.805000 40.985400 -0.000006 -0.000013 -6.573870 4.537430 -62.611300 11.754300 -0.000000 0.000003 -0.000139 -0.001365 -16.629500 -2.192510 6.469440 -0.000001 174.635000 21.222400 178.724000 -39.081100 -0.002282 -0.040193 -0.038112 0.119650 19.101100 -40.985400 0.000008 0.000006 -3.257920 3.354110 -62.747600 -11.754300 -0.000006 -0.000006 -0.005118 -0.062602 -19.120300
0.000000 0.000000 0.000000 0.000000 0.000000 -0.000000 -1.054420 92.077200 -1.913240 87.465600 -0.274221 2.927310 15.735700 0.000005 -0.000001 87.230600 85.290400 -86.777400 8.984550 -0.406207 -0.000000 1.644280 -0.479056 0.912614 16.377300 -0.000001 -0.000001 3.643100 -2.046180 0.202952 6.456720 -0.000001 -0.000000 -0.417805 -0.517107 2.726230 12.994200 -0.242716 4.980390 -89.669700 -0.993985 -71.615300 5.348090 -0.000007 -0.000001 -66.491400 39.622200 -12.943900 24.328600 0.000019 0.000005 3.807240 7.187320 -28.007900 22.291600 -0.000001 0.000005 7.201720 5.627320 -13.138000 12.994500 -0.242716 -4.980390 87.354100 6.857550 -68.842000 -5.348130 -0.000001 -0.000004 -63.366400 31.084500 -14.456300 -24.328900 0.000322 -0.000009 0.475041 1.056660 -24.256600 -22.291500 -0.000108 -0.000004 7.817530 5.553850 -8.888830 -2.192480 -6.469440 -0.000000 -167.974000 -15.724000 -3.262930 39.081100 -0.000007 -0.000012 -0.183731 0.481064 20.903400 40.985400 -0.000006 -0.000013 -6.554830 4.555710 -62.651700 11.754300 -0.000000 0.000003 -0.000145 -0.001415 -16.631400 -2.192510 6.469440 -0.000001 174.675000 21.211200 178.704000 -39.081100 -0.002282 -0.040193 -0.038076 0.119624 19.089800 -40.985400 0.000008 0.000006 -3.302830 3.336610 -62.724000 -11.754300 -0.000006 -0.000006 -0.005112 -0.062544 -19.117900
0.000000 0.000000 0.000000 0.000000 0.000000 -0.000000 -1.015570 92.078300 -1.919850 87.493200 -0.347859 2.961890 15.735700 0.000005 -0.000001 87.042900 85.267500 -86.639500 8.984550 -0.406207 -0.000000 1.688370 -0.509393 0.813757 16.377300 -0.000001 -0.000001 3.608610 -1.994540 0.207581 6.456720 -0.000001 -0.000000 -0.479559 -0.487444 2.826140 12.994200 -0.242716 4.980390 -89.654000 -1.035750 -71.526700 5.348090 -0.000007 -0.000001 -66.395000 39.727800 -12.852100 24.328600 0.000019 0.000005 3.889200 7.306460 -28.127000 22.291600 -0.000001 0.000005 7.124310 5.626930 -13.109800 12.994500 -0.242716 -4.980390 87.349800 6.850600 -68.791200 -5.348130 -0.000001 -0.000004 -62.395900 30.269900 -15.033300 -24.328900 0.000322 -0.000009 0.474286 1.022850 -24.927100 -22.291500 -0.000108 -0.000004 8.014190 5.555050 -8.946860 -2.192480 -6.469440 -0.000000 -168.014000 -15.704400 -3.198660 39.081100 -0.000007 -0.000012 -0.184235 0.482678 20.891800 40.985400 -0.000006 -0.000013 -6.546990 4.485160 -62.672600 11.754300 -0.000000 0.000003 -0.000125 -0.001244 -16.625000 -2.192510 6.469440 -0.000001 174.611000 21.241200 178.714000 -39.081100 -0.002282 -0.040193 -0.037324 0.117237 19.121900 -40.985400 0.000008 0.000006 -3.224030 3.406970 -62.724000 -11.754300 -0.000006 -0.000006 -0.005148 -0.062886 -19.131900
0.000000 0.000000 0.000000 0.000000 0.000000 -0.000000 -0.989638 92.085900 -1.948150 87.480800 -0.433088 2.965280 15.735700 0.000005 -0.000001 86.987000 85.250200 -86.622000 8.984550 -0.406207 -0.000000 1.722220 -0.518280 0.736978 16.377300 -0.000001 -0.000001 3.564880 -1.952390 0.257708 6.456720 -0.000001 -0.000000 -0.570729 -0.490335 2.796860 12.994200 -0.242716 4.980390 -89.644700 -1.060970 -71.483700 5.348090 -0.000007 -0.000001 -66.224000 39.841900 -12.780300 24.328600 0.000019 0.000005 3.845830 7.189200 -28.242600 22.291600 -0.000001 0.000005 7.165770 5.628750 -13.243000 12.994500 -0.242716 -4.980390 87.333300 6.876120 -68.742300 -5.348130 -0.000001 -0.000004 -61.133500 29.258000 -15.780300 -24.328900 0.000322 -0.000009 0.512209 1.061620 -25.805100 -22.291500 -0.000108 -0.000004 8.215310 5.553790 -8.886150 -2.192480 -6.469440 -0.000000 -168.016000 -15.797900 -3.190560 39.081100 -0.000007 -0.000012 -0.182865 0.479251 20.885300 40.985400 -0.000006 -0.000013 -6.520330 4.500630 -62.658300 11.754300 -0.000000 0.000003 -0.000124 -0.001235 -16.624700 -2.192510 6.469440 -0.000001 174.622000 21.173900 178.697000 -39.081100 -0.002282 -0.040193 -0.035177 0.111279 19.084400 -40.985400 0.000008 0.000006 -3.124430 3.445180 -62.680500 -11.754300 -0.000006 -0.000006 -0.004934 -0.060826 -19.047900
0.000000 0.000000 0.000000 0.000000 0.000000 -0.000000 -0.927793 92.088400 -1.972110 87.492000 -0.587436 2.984220 15.735700 0.000005 -0.000001 87.071200 85.229500 -86.758100 8.984550 -0.406207 -0.000000 1.764090 -0.503604 0.633221 16.377300 -0.000001 -0.000001 3.519500 -1.897460 0.275299 6.456720 -0.000001 -0.000000 -0.679739 -0.436042 2.816270 12.994200 -0.242716 4.980390 -89.623600 -1.116380 -71.368400 5.348090 -0.000007 -0.000001 -65.751200 40.405800 -12.898700 24.328600 0.000019 0.000005 3.752240 6.945580 -28.472200 22.291600 -0.000001 0.000005 7.126430 5.629820 -13.323100 12.994500 -0.242716 -4.980390 87.317400 6.879230 -68.635700 -5.348130 -0.000001 -0.000004 -59.579800 28.169600 -16.754200 -24.328900 0.000322 -0.000009 0.541482 1.067450 -26.944700 -22.291500 -0.000108 -0.000004 8.429380 5.550850 -8.746300 -2.192480 -6.469440 -0.000000 -168.073000 -15.846200 -3.170610 39.081100 -0.000007 -0.000012 -0.181830 0.475357 20.932700 40.985400 -0.000006 -0.000013 -6.490800 4.365030 -62.703000 11.754300 -0.000000 0.000003 -0.000124 -0.001240 -16.624900 -2.192510 6.469440 -0.000001 174.571000 21.163000 178.680000 -39.081100 -0.002282 -0.040193 -0.034283 0.108756 19.074600 -40.985400 0.000008 0.000006 -3.113500 3.589110 -62.624300 -11.754300 -0.000006 -0.000006 -0.004964 -0.061121 -19.059900
